<svg xmlns="http://www.w3.org/2000/svg" width="672.843" height="51.187" viewBox="0 0 672.843 51.187">
  <metadata><?xpacket begin="﻿" id="W5M0MpCehiHzreSzNTczkc9d"?>
<x:xmpmeta xmlns:x="adobe:ns:meta/" x:xmptk="Adobe XMP Core 5.6-c138 79.159824, 2016/09/14-01:09:01        ">
   <rdf:RDF xmlns:rdf="http://www.w3.org/1999/02/22-rdf-syntax-ns#">
      <rdf:Description rdf:about=""/>
   </rdf:RDF>
</x:xmpmeta>
                                                                                                    
                                                                                                    
                                                                                                    
                                                                                                    
                                                                                                    
                                                                                                    
                                                                                                    
                                                                                                    
                                                                                                    
                                                                                                    
                                                                                                    
                                                                                                    
                                                                                                    
                                                                                                    
                                                                                                    
                                                                                                    
                                                                                                    
                                                                                                    
                                                                                                    
                                                                                                    
                           
<?xpacket end="w"?></metadata>
<defs>
    <style>
      .cls-1 {
        fill: #fefefe;
        fill-rule: evenodd;
      }
    </style>
  </defs>
  <path id="The_Tinker_Guide" data-name="The Tinker Guide" class="cls-1" d="M126.969,215.41l-0.352-10.23-44.3,1.371L82.672,217.2l14.625-.7L98,255.664l12.973-.492-0.633-39.094Zm41.554-9.562,0.95,26.648-23.7.633V206.48H130.73l0.071,49.184h15.047V241.32l23.976-.492,0.422,14.2,11.672-.527-1.512-49.113Zm57.832,11.5V205.32H185.539l0.633,50.344,36.07-.633-0.281-9.6-22.816.738L199,240.688h15.117v-6.75h-15.4l-0.211-16.594h27.843Zm77.274-1.934-0.352-10.23-44.3,1.371,0.352,10.652,14.625-.7,0.7,39.164,12.973-.492L287,216.078Zm19.9,40.535,2.075-50.379-13.817-.738-2.074,50.414,13.816,0.7h0Zm43.453-.914,9.493-.738L375.7,205.32l-11.6.457,1.511,31.535L343.145,205.25H332.914v50.414h13.535l-0.7-30.516ZM418.59,213.2l-8.93-8.226-15.047,17.789-0.738-17.789-13.676.668,2.742,50.027,13.676-.7-1.441-17.3,15.187,17.3,6.856-6.856L400.66,231.758,418.59,213.2h0Zm44.121,4.149V205.32H421.9l0.632,50.344,36.071-.633-0.282-9.6-22.816.738-0.141-5.484h15.118v-6.75h-15.4l-0.211-16.594h27.844Zm41.625,10.248a11.152,11.152,0,0,0,1.143-2.654,11.839,11.839,0,0,0,.421-2.708,27.324,27.324,0,0,0-.052-2.918,13.183,13.183,0,0,0-1.16-4.482,15.818,15.818,0,0,0-2.514-3.9,16.129,16.129,0,0,0-3.463-2.971,12.4,12.4,0,0,0-4.008-1.687,51.2,51.2,0,0,0-8.279-1.2q-3.6-.176-6.135-0.176l-13.746.739,1.371,50.027,13.043-.7-0.387-18.316,16.137,18.316,6.855-6.152-13.324-13.465a30.531,30.531,0,0,0,3.112-.545,22.475,22.475,0,0,0,3.216-.985,20.658,20.658,0,0,0,3.041-1.476,12.221,12.221,0,0,0,2.584-2.022A14.471,14.471,0,0,0,504.336,227.592Zm-10.986-1.283a5.711,5.711,0,0,1-2.145,2.144,9.084,9.084,0,0,1-3.041,1.055,21.3,21.3,0,0,1-3.269.3q-1.582.018-2.848-.088t-1.758-.106V216.5a38.7,38.7,0,0,1,5.52-.088,13.166,13.166,0,0,1,4.166.879,6.457,6.457,0,0,1,2.742,2.039,6.783,6.783,0,0,1,1.248,3.358A6.218,6.218,0,0,1,493.35,226.309Zm77.414-7.981a31.558,31.558,0,0,1,4.131.651,25.351,25.351,0,0,1,3.357,1,11.833,11.833,0,0,1,2.2,1.055V208.2a7.634,7.634,0,0,0-1.6-.791,31.056,31.056,0,0,0-3.393-1.125,44.2,44.2,0,0,0-4.781-1.019,35.994,35.994,0,0,0-5.766-.44,35.23,35.23,0,0,0-8.736,1.02,28.631,28.631,0,0,0-7.207,2.865,24.064,24.064,0,0,0-5.625,4.412,24.587,24.587,0,0,0-3.99,5.66,26.4,26.4,0,0,0-2.321,6.574,28.17,28.17,0,0,0-.562,7.207,19,19,0,0,0,1.072,6.4,21.637,21.637,0,0,0,2.953,5.59,23.936,23.936,0,0,0,4.447,4.6,28.582,28.582,0,0,0,5.573,3.463,31.3,31.3,0,0,0,6.328,2.2,29.422,29.422,0,0,0,6.7.774h14.273V230.527H561.535v8.157h6.047v6.046a20.677,20.677,0,0,1-5.572-.263,17.48,17.48,0,0,1-5.133-1.758,13.21,13.21,0,0,1-4.008-3.27,10.449,10.449,0,0,1-2.2-4.8,13.246,13.246,0,0,1,.053-5.414,12.117,12.117,0,0,1,1.863-4.2,12.946,12.946,0,0,1,3.058-3.076,18.5,18.5,0,0,1,3.692-2.056,20.421,20.421,0,0,1,3.744-1.161,16.438,16.438,0,0,1,3.2-.369A22.174,22.174,0,0,1,570.764,218.328Zm13.816-1.705q0.052,4.94.158,8.666t0.282,6.4q0.175,2.672.386,4.587t0.492,3.235a20.24,20.24,0,0,0,.633,2.338,19.637,19.637,0,0,0,3.657,6.029,22.624,22.624,0,0,0,3.3,3.041,21.369,21.369,0,0,0,4.553,2.6,30.735,30.735,0,0,0,5.976,1.81,38.047,38.047,0,0,0,7.577.686,26.213,26.213,0,0,0,8.05-1.2,22.72,22.72,0,0,0,6.592-3.3,19.015,19.015,0,0,0,4.711-4.94,16.027,16.027,0,0,0,2.408-6.1q0.282-1.687.493-3.288t0.351-3.515q0.141-1.916.211-4.289t0.123-5.573q0.053-3.2.07-7.435t0.018-9.826q-1.687.035-2.953,0.035H628.93q-1.477,0-2.742-.018t-2.989-.017q0,6.117.176,11.478t0.141,9.862a74.439,74.439,0,0,1-.457,8.068,19.192,19.192,0,0,1-1.635,6.082,9.32,9.32,0,0,1-3.428,3.92,11.718,11.718,0,0,1-5.766,1.582,14.522,14.522,0,0,1-5.818-.686,7.367,7.367,0,0,1-3.621-2.918,14.345,14.345,0,0,1-1.951-5.361,58.233,58.233,0,0,1-.774-8.068q-0.176-4.764-.087-11.022t0.087-14.238H584.527Q584.527,211.683,584.58,216.623Zm69.873,39.322,2.074-50.379-13.816-.738-2.074,50.414,13.816,0.7h0Zm54.053-38.935a21.622,21.622,0,0,0-4.834-5.5,23.934,23.934,0,0,0-6.012-3.516,37.912,37.912,0,0,0-6.469-1.969,45.3,45.3,0,0,0-6.205-.861q-2.971-.192-5.22-0.193-1.3,0-3.235.07t-4.183.193q-2.251.124-4.623,0.317t-4.518.439l0.7,49.254a31.259,31.259,0,0,0,3.762.281q2.074,0.072,5.484.036t8.614-.317a43.66,43.66,0,0,0,8.648-1.195,36.209,36.209,0,0,0,7.77-2.83,28.885,28.885,0,0,0,6.433-4.4,22.2,22.2,0,0,0,4.641-5.888,22.618,22.618,0,0,0,2.426-7.33,25.332,25.332,0,0,0-.247-8.666A22.842,22.842,0,0,0,708.506,217.01Zm-33.557,2.865a23.627,23.627,0,0,1,2.567-.422,31.364,31.364,0,0,1,6.961,0,23.969,23.969,0,0,1,3.779.721,18.54,18.54,0,0,1,3.551,1.388,11.671,11.671,0,0,1,3.023,2.233,11.141,11.141,0,0,1,2.162,3.217,12.089,12.089,0,0,1,.985,4.324,12.846,12.846,0,0,1-1.2,6.7,11.7,11.7,0,0,1-4.359,4.694,20.03,20.03,0,0,1-7.19,2.584,40.5,40.5,0,0,1-9.65.4Zm80.192-2.531V205.32H714.324l0.633,50.344,36.07-.633-0.281-9.6-22.816.738-0.141-5.484h15.117v-6.75h-15.4L727.3,217.344h27.844Z" transform="translate(-82.313 -204.844)"/>
</svg>
